# xmcd
#
# Track frame offsets: 
#        150
#        27834
#        72090
#        101088
#        133699
#        170290
#        220717
#        246546
#        292121
#
# Disc length: 4317 seconds
#
# Revision: 0
# Processed by: cddbd v1.5.2PL0 Copyright (c) Steve Scherf et al.
# Submitted via: ExactAudioCopy v0.99pb4
#
DISCID=8610db09
DTITLE=Felix Petry - Felix Petry Group
DYEAR=2002
DGENRE=Blues
TTITLE0=Blues ist irgendwie so ein Gefühl
TTITLE1=Dumm, geil, kindisch
TTITLE2=Sieben
TTITLE3=Pray
TTITLE4=Verlasse Köln
TTITLE5=Dribbelburger
TTITLE6=Balls
TTITLE7=Marzipanhimmel
TTITLE8=Sister
EXTD=
EXTT0=
EXTT1=
EXTT2=
EXTT3=
EXTT4=
EXTT5=
EXTT6=
EXTT7=
EXTT8=
PLAYORDER=
